<?xml version="1.0" encoding="UTF-8" standalone="no"?>
<svg
   xmlns:dc="http://purl.org/dc/elements/1.1/"
   xmlns:cc="http://creativecommons.org/ns#"
   xmlns:rdf="http://www.w3.org/1999/02/22-rdf-syntax-ns#"
   xmlns:svg="http://www.w3.org/2000/svg"
   xmlns="http://www.w3.org/2000/svg"
   xmlns:sodipodi="http://sodipodi.sourceforge.net/DTD/sodipodi-0.dtd"
   xmlns:inkscape="http://www.inkscape.org/namespaces/inkscape"
   inkscape:version="1.0 (4035a4fb49, 2020-05-01)"
   sodipodi:docname="wave.svg"
   id="svg12"
   preserveAspectRatio="xMidYMid meet"
   viewBox="0 0 1000.000000 625.000000"
   height="625.000000pt"
   width="1000.000000pt"
   version="1.0">
  <metadata
     id="metadata18">
    <rdf:RDF>
      <cc:Work
         rdf:about="">
        <dc:format>image/svg+xml</dc:format>
        <dc:type
           rdf:resource="http://purl.org/dc/dcmitype/StillImage" />
        <dc:title></dc:title>
      </cc:Work>
    </rdf:RDF>
  </metadata>
  <defs
     id="defs16" />
  <sodipodi:namedview
     inkscape:current-layer="svg12"
     inkscape:window-maximized="1"
     inkscape:window-y="-11"
     inkscape:window-x="-11"
     inkscape:cy="416.66667"
     inkscape:cx="666.66667"
     inkscape:zoom="0.97275"
     showgrid="false"
     id="namedview14"
     inkscape:window-height="1046"
     inkscape:window-width="1920"
     inkscape:pageshadow="2"
     inkscape:pageopacity="0"
     guidetolerance="10"
     gridtolerance="10"
     objecttolerance="10"
     borderopacity="1"
     bordercolor="#666666"
     pagecolor="#ffffff" />
  <g
     style="fill:#0da041;fill-opacity:1"
     id="g10"
     stroke="none"
     fill="#000000"
     transform="translate(0.000000,625.000000) scale(0.100000,-0.100000)">
    <path
       style="fill:#0da041;fill-opacity:1"
       id="path2"
       d="M5354 500 c-120 -25 -191 -87 -279 -245 -71 -128 -107 -160 -168 -152 -43 6 -77 33 -110 87 -83 138 -109 169 -159 194 -88 44 -194 29 -258 -37 -14 -13 -65 -81 -115 -150 -49 -69 -102 -132 -116 -141 -59 -35 -152 -8 -182 51 -8 15 -22 57 -30 92 -17 66 -42 103 -89 127 -38 20 -97 17 -136 -6 -29 -18 -48 -44 -132 -181 -34 -56 -99 -93 -164 -94 -76 0 -123 28 -173 106 -93 142 -147 181 -252 181 -96 0 -158 -37 -216 -127 -42 -66 -92 -95 -166 -95 -80 0 -127 33 -173 119 -42 80 -66 101 -114 101 -71 0 -108 -43 -127 -144 -4 -21 -20 -50 -37 -66 -24 -25 -38 -30 -77 -30 -63 0 -95 26 -131 104 -42 93 -98 136 -176 136 -76 0 -137 -48 -170 -134 -38 -97 -113 -146 -198 -126 -54 12 -86 47 -145 160 -28 54 -65 110 -82 124 -54 46 -155 27 -186 -35 -7 -13 -26 -68 -43 -123 -39 -125 -53 -152 -93 -176 -32 -20 -11 -20 2983 -19 2122 0 3006 4 2985 11 -48 17 -60 33 -110 147 -68 159 -131 211 -252 211 -75 -1 -126 -24 -203 -95 -83 -76 -134 -98 -235 -98 -131 -1 -182 29 -323 190 -97 112 -222 160 -348 133z" />
    <path
       style="fill:#0da041;fill-opacity:1"
       id="path4"
       d="M7215 364 c-67 -24 -111 -69 -181 -187 -79 -132 -98 -154 -138 -166 -19 -6 139 -10 419 -10 l450 -1 -41 25 c-28 17 -73 67 -138 154 -54 72 -113 140 -135 154 -71 47 -159 59 -236 31z" />
    <path
       style="fill:#0da041;fill-opacity:1"
       id="path6"
       d="M8253 356 c-97 -31 -158 -90 -208 -201 -34 -72 -67 -111 -120 -138 -28 -15 57 -16 1023 -17 905 0 1052 2 1052 14 0 8 -62 51 -137 96 -91 54 -151 97 -177 127 -49 56 -104 82 -174 83 -92 0 -159 -41 -210 -130 -57 -100 -141 -158 -242 -167 -102 -10 -145 11 -340 162 -96 74 -195 145 -220 157 -55 27 -184 35 -247 14z" />
    <path
       style="fill:#0da041;fill-opacity:1"
       id="path8"
       d="M314 285 c-26 -15 -50 -42 -67 -74 -33 -61 -71 -94 -170 -152 -42 -24 -77 -47 -77 -51 0 -5 163 -8 363 -8 l362 0 -32 19 c-21 14 -47 49 -81 113 -28 51 -58 103 -67 116 -48 66 -155 83 -231 37z" />
  </g>
</svg>
